<mxfile host="app.diagrams.net" modified="2024-03-04T22:19:57.195Z" agent="Mozilla/5.0 (Windows NT 10.0; Win64; x64) AppleWebKit/537.36 (KHTML, like Gecko) Chrome/122.0.0.0 Safari/537.36" version="24.0.1" etag="znGkwA1b9p_-H9zw6CoD" type="github">
  <diagram name="PÃ¡gina-1" id="FXlZhydh-fA7SwS8z_8f">
    <mxGraphModel>
      <root>
        <mxCell id="0" />
        <mxCell id="1" parent="0" />
      </root>
    </mxGraphModel>
  </diagram>
</mxfile>
